Coordinates
version=1
nRows=26
nColumns=24
inDegrees=yes

Units are S.I. units (second, meters, Newtons, ...)
Angles are in degrees.

endheader
time	pelvis_tilt	pelvis_list	pelvis_rotation	pelvis_tx	pelvis_ty	pelvis_tz	hip_flexion_r	hip_adduction_r	hip_rotation_r	knee_angle_r	ankle_angle_r	subtalar_angle_r	mtp_angle_r	hip_flexion_l	hip_adduction_l	hip_rotation_l	knee_angle_l	ankle_angle_l	subtalar_angle_l	mtp_angle_l	lumbar_extension	lumbar_bending	lumbar_rotation
      1.05866667	     -5.42364041	     -1.13020009	     -6.30013445	     -0.08632216	      0.88242842	      0.34382204	    -12.70974356	      5.87480216	      1.41384158	     -5.95571859	     17.32436910	      8.04129381	      8.77458753	     30.51867689	     -2.47164146	     -6.74807369	     -2.62664347	      0.66328317	     -6.65804183	      1.38179126	     -2.79640960	      1.91950672	     10.20181591
      1.06283333	     -5.50949169	     -1.06338053	     -6.37774021	     -0.08072299	      0.88120898	      0.34372849	    -12.73998101	      5.73080837	      1.39372952	     -6.50456957	     17.56358325	      8.29271383	      8.93772646	     30.73746947	     -2.39807814	     -6.62481657	     -3.12925513	      0.54730000	     -6.60121025	      1.41571248	     -2.70189801	      1.79154298	     10.28881774
      1.06700000	     -5.58078575	     -0.98012580	     -6.45632972	     -0.07508668	      0.88006969	      0.34365012	    -12.77624309	      5.57147380	      1.43348314	     -7.07584036	     17.78874770	      8.41808301	      9.06340110	     30.91103751	     -2.30387351	     -6.47377501	     -3.64425410	      0.40134715	     -6.58958601	      1.45443966	     -2.62829925	      1.62868527	     10.32884645
      1.07116667	     -5.64933916	     -0.88942694	     -6.51201228	     -0.06940703	      0.87897922	      0.34351118	    -12.79882342	      5.39910955	      1.37325774	     -7.67588965	     17.96346530	      8.70925036	      9.28723989	     31.10400822	     -2.19117285	     -6.36707814	     -4.26458391	      0.19746882	     -6.60442942	      1.54279684	     -2.54668568	      1.47152784	     10.39561859
      1.07533333	     -5.70402956	     -0.77521539	     -6.56974836	     -0.06369428	      0.87797709	      0.34339719	    -12.82202280	      5.20534658	      1.38497876	     -8.30723230	     18.11468030	      8.81273501	      9.43883697	     31.25233675	     -2.05310223	     -6.24770597	     -4.87845740	     -0.05108426	     -6.64335031	      1.60861531	     -2.48141868	      1.25664350	     10.40957012
      1.07950000	     -5.76517910	     -0.65689149	     -6.60511442	     -0.05793768	      0.87701510	      0.34321950	    -12.81801058	      5.00470173	      1.31369388	     -8.97550718	     18.22444949	      9.06076621	      9.65825366	     31.42122822	     -1.89870189	     -6.14926947	     -5.56757923	     -0.34728149	     -6.73470348	      1.71169300	     -2.39865111	      1.05767838	     10.43726054
      1.08366667	     -5.77365554	     -0.52950026	     -6.61369915	     -0.05211383	      0.87619695	      0.34300123	    -12.87502490	      4.78991793	      1.20586949	     -9.62682445	     18.19029895	      9.24780199	     12.74322370	     31.51207242	     -1.71187077	     -6.01962933	     -6.24704565	     -0.74417025	     -6.96533376	      3.32647390	     -2.37102118	      0.83759588	     10.44581971
      1.08783333	     -5.81561580	     -0.38743935	     -6.63550248	     -0.04626810	      0.87540349	      0.34282555	    -12.87079874	      4.56627762	      1.17062557	    -10.33477646	     18.18466674	      9.37539048	     12.77928095	     31.65037855	     -1.53019154	     -5.99019016	     -6.99568540	     -1.09268447	     -7.03473460	      3.34905705	     -2.29467021	      0.59132264	     10.43559322
      1.09200000	     -5.84898788	     -0.24328630	     -6.63224108	     -0.04039068	      0.87468051	      0.34257749	    -12.85154521	      4.33628646	      1.06676473	    -11.09052501	     18.14778542	      9.58483261	     12.85825157	     31.77765476	     -1.32756239	     -5.93008046	     -7.76338152	     -1.48397770	     -7.19674350	      3.38849199	     -2.22293208	      0.34503787	     10.41772025
      1.09616667	     -5.86073277	     -0.09532896	     -6.60451333	     -0.03446934	      0.87404923	      0.34228467	    -12.83860804	      4.09926738	      0.90852128	    -11.87914090	     18.10101482	      9.87796600	     13.04611258	     31.88107420	     -1.10460018	     -5.84836791	     -8.55624093	     -1.89019212	     -7.46208233	      3.47360184	     -2.17945244	      0.10906928	     10.39002921
      1.10033333	     -5.88354236	      0.07590434	     -6.58549962	     -0.02849642	      0.87350341	      0.34201670	    -12.79871852	      3.83999407	      0.80933297	    -12.68769105	     17.91276656	     10.01026405	     13.21379514	     31.97572236	     -0.86849495	     -5.81028664	     -9.32901183	     -2.32387211	     -7.65386116	      3.53814268	     -2.10489600	     -0.18370624	     10.33762670
      1.10450000	     -5.90315280	      0.24048373	     -6.53662411	     -0.02250243	      0.87301723	      0.34168612	    -12.73199436	      3.58687581	      0.65429240	    -13.55893143	     17.70731050	     10.22782583	     13.44294119	     32.07809801	     -0.62374675	     -5.75939799	    -10.13999110	     -2.73081331	     -7.90938030	      3.61680954	     -2.03178601	     -0.45451935	     10.27174631
      1.10866667	     -5.86238319	      0.41941569	     -6.48798438	     -0.01646260	      0.87271374	      0.34133172	    -12.71583384	      3.30589693	      0.49576253	    -14.44186331	     17.38871429	     10.36919989	     16.99406153	     32.08496689	     -0.34874387	     -5.67072143	    -10.90360914	     -3.18921851	     -8.38201222	      4.77886206	     -2.04218833	     -0.74383280	     10.20966442
      1.11283333	     -5.88828362	      0.56607183	     -6.39593954	     -0.01041790	      0.87235665	      0.34093093	    -12.60107815	      3.07525282	      0.29966835	    -15.38819158	     17.04885361	     10.58327484	     17.08808167	     32.22037831	     -0.11468245	     -5.65676202	    -11.80318115	     -3.48791810	     -8.47310439	      4.80492404	     -1.96172472	     -0.98253527	     10.12007487
      1.11700000	     -5.89429935	      0.74192697	     -6.31727568	     -0.00431267	      0.87213332	      0.34054508	    -12.48564738	      2.80578074	      0.13829660	    -16.36340907	     16.60832621	     10.74381622	     17.20885991	     32.29955283	      0.14729010	     -5.64201958	    -12.65062625	     -3.77766312	     -8.66981723	      4.82593881	     -1.88802233	     -1.28430511	     10.03175448
      1.12116667	     -5.87271247	      0.92042146	     -6.23171846	      0.00178451	      0.87202746	      0.34008887	    -12.34971016	      2.51820207	     -0.06745974	    -17.42625567	     16.13986502	     10.92962106	     19.92224624	     32.32584812	      0.43305765	     -5.55028031	    -13.45274513	     -4.11769363	     -9.10292359	      5.22499290	     -1.86831524	     -1.55343047	      9.93072034
      1.12533333	     -5.87200955	      1.08269289	     -6.11536512	      0.00793556	      0.87194651	      0.33963526	    -12.18444467	      2.25906246	     -0.27971918	    -18.50210848	     15.57852565	     11.11866208	     19.98562523	     32.41158680	      0.69041448	     -5.54047891	    -14.36174560	     -4.22282634	     -9.16661024	      5.23138586	     -1.80136342	     -1.83539525	      9.82987798
      1.12950000	     -5.86416220	      1.24353557	     -6.00859794	      0.01403912	      0.87194127	      0.33913386	    -11.95318149	      1.98309618	     -0.52025779	    -19.71336740	     15.07026468	     11.37505164	     20.16707362	     32.47607147	      0.94933456	     -5.51283665	    -15.24539454	     -4.34370668	     -9.33241664	      5.23697927	     -1.76272997	     -2.07413845	      9.69746633
      1.13366667	     -5.85056176	      1.41154859	     -5.89398790	      0.02018759	      0.87202639	      0.33861547	    -11.70545631	      1.69475306	     -0.75596430	    -20.95271982	     14.44362857	     11.61212842	     20.43433265	     32.51716186	      1.22028739	     -5.46995102	    -16.10999037	     -4.39259502	     -9.49460166	      5.23990965	     -1.71917259	     -2.33685032	      9.57382036
      1.13783333	     -5.80191072	      1.58590619	     -5.77707330	      0.02637657	      0.87225476	      0.33807404	    -11.47316655	      1.38490230	     -1.00279165	    -22.20408462	     13.62988855	     11.82023586	     23.99356688	     32.48767765	      1.51129361	     -5.38964146	    -16.91851965	     -4.42545373	     -9.77853516	      5.18004524	     -1.71862527	     -2.61213104	      9.45967588
      1.14200000	     -5.77552984	      1.74832291	     -5.65456658	      0.03253321	      0.87247884	      0.33753134	    -11.15986746	      1.08919237	     -1.23813804	    -23.56865916	     12.89722457	     12.00160207	     24.06228209	     32.50262063	      1.77176978	     -5.37621513	    -17.78587585	     -4.27415586	     -9.76395569	      5.17962236	     -1.68516640	     -2.87460802	      9.35214013
      1.14616667	     -5.73843901	      1.91056023	     -5.53237290	      0.03868754	      0.87278276	      0.33696388	    -10.81735035	      0.77899288	     -1.48756598	    -24.99084048	     12.08954879	     12.24180493	     24.18734648	     32.48208493	      2.03957479	     -5.33565567	    -18.61061745	     -4.10416150	     -9.82139820	      5.17202180	     -1.67278820	     -3.12423260	      9.23691169
      1.15033333	     -5.69383845	      2.07633927	     -5.41247478	      0.04483018	      0.87314879	      0.33637480	    -10.43641295	      0.45045132	     -1.74716517	    -26.48112137	     11.23988627	     12.49987178	     24.38077848	     32.43397304	      2.31256837	     -5.29520406	    -19.40169929	     -3.88699923	     -9.87668394	      5.15578739	     -1.66884168	     -3.37651767	      9.11754647
      1.15450000	     -5.57333128	      2.28685630	     -5.27764091	      0.05101638	      0.87368575	      0.33571910	    -10.10633553	      0.04169671	     -2.08877660	    -28.00551432	     10.30822716	     12.82002495	     26.71934802	     32.25231071	      2.66231839	     -5.20310931	    -20.08583564	     -3.65851970	    -10.01946872	      4.85201207	     -1.76230998	     -3.70629096	      8.96827517
      1.15866667	     -5.55577795	      2.41412913	     -5.17235875	      0.05707588	      0.87411709	      0.33516799	     -9.61559690	     -0.24772830	     -2.26415873	    -29.59282706	      9.27609952	     12.94018829	     26.77785905	     32.20283882	      2.88181282	     -5.16466350	    -20.83187094	     -3.30772544	     -9.97732349	      4.84813331	     -1.73051607	     -3.90918527	      8.89560986
      1.16283333	     -5.44336688	      2.56240010	     -5.04808096	      0.06316634	      0.87472833	      0.33456091	     -9.20675404	     -0.58620651	     -2.52077526	    -31.19681440	      8.20195237	     13.03572506	     26.80791686	     32.01844885	      3.14558161	     -5.13868424	    -21.51524544	     -2.93239657	    -10.00257664	      4.84852630	     -1.81490187	     -4.13147188	      8.82232245
